# xmcd
#
# Track frame offsets: 
#        150
#        25402
#        56677
#        87200
#        114957
#        149482
#        182150
#        211602
#        238400
#
# Disc length: 3523 seconds
#
# Revision: 2
# Processed by: cddbd v1.5.2PL0 Copyright (c) Steve Scherf et al.
# Submitted via: ExactAudioCopyFreeDBPlugin 1.0
#
DISCID=7c0dc109
DTITLE=Various Artist - Trucker and Country Party Hit Mix  [CD 2)
DYEAR=2002
DGENRE=Country
TTITLE0=Medley No.1 - Auf nach Nashville - Hamburg Hillbillies_ Drei g
TTITLE0=anze Wochen frei (Gudrun Lange and Kactus) - Ich geb' heut' Nach
TTITLE0=t 'ne kleine Party (Olivia Winter) - Intercity Line Nummer 4 (
TTITLE0=Gunter Gabriel)
TTITLE1=Medley No.2 - Ruby, Don't Take Your Love To Town (Kenny Rogers
TTITLE1=_Six Days On The Road (Dave Dudley) - Ruben James (Kenny Roger
TTITLE1=s) - Me And Bobby McGee (Gudrun Lange and Kactus)
TTITLE2=Medley No.3 - Und in Hamburg sitzt Gaby (Tom Astor) - Ring aus 
TTITLE2=Feuer "Ring Of Fire"(Andre Lamberz and Hills Angels) - Auf nach 
TTITLE2=Westen (Sammy's Saloon) - Bärenstarke Cowboys (Gudrun Lange and 
TTITLE2=Kactus)
TTITLE3=Medley No.4 - A Boy Named Sue (Johnny Cash9 - Holdin' Heaven (
TTITLE3=Billy Strong) - One more Last Chance (Sam Jackson) - Chattahoo
TTITLE3=chee (Merle Stone)
TTITLE4=Medley No.5 - Wir hör'n uns wieder im Radio (Olivia Winter) - 
TTITLE4=Ihr Leben das ist ihr Laster (Tom Astor) -  Ich brauche einen 
TTITLE4=guten Freund (Gudrun Lange and Kactus) - Oh, nur mit dir "Oh, Lo
TTITLE4=nesome Me" (Andre Lamberz and Hills Angels)
TTITLE5=Medley No.6 - Last Day In The Mines (Dave Dudley) - Ring Of Fi
TTITLE5=re (Johnny Cash) - Sticks And Stones (Donna Fargo) - Daddy San
TTITLE5=g Bass (Carl Perkins)
TTITLE6=Medley No.7 - 14 Tage auf dem Brenner (Tom Astor) - Und wieder
TTITLE6=zeigt dir einer einen Vogel (Johnny Hill) - Ein Duft von Heu 
TTITLE6=(Gudrun Lange and Kactus) - Nach Süden (Western Union)
TTITLE7=Medley No.8 - I Don't Call Him Daddy (Mel Gibson) - Look Heart
TTITLE7=, No Hands (Bruce Slowhand) - Forever and Ever Amen (Paul McHu
TTITLE7=gh)
TTITLE8=Medley No.9 - Ich fahre nie mehr blau (Sammy's Saloon9 - Ich g
TTITLE8=eh nie wieder auf den Acker "I Never Picked Cotton (Andre Lamb
TTITLE8=erz and Hills Angels) - Ich hör' so gern Cajun Music (Tom Astor)
EXTD=YEAR: 2002
EXTT0=
EXTT1=
EXTT2=
EXTT3=
EXTT4=
EXTT5=
EXTT6=
EXTT7=
EXTT8=
PLAYORDER=
